HIERARCHY
ROOT Hips
{
	OFFSET 0.000000 0.000000 0.000000 
	CHANNELS 6 Xposition Yposition Zposition Zrotation Yrotation Xrotation
	JOINT LeftUpLeg
	{
		OFFSET 1.363060 -1.794630 0.839290 
		CHANNELS 3 Zrotation Yrotation Xrotation
		JOINT LeftLeg
		{
			OFFSET 2.448110 -6.726130 0.000000 
			CHANNELS 3 Zrotation Yrotation Xrotation
			JOINT LeftFoot
			{
				OFFSET 2.562200 -7.039590 0.000000 
				CHANNELS 3 Zrotation Yrotation Xrotation
				JOINT LeftToeBase
				{
					OFFSET 0.157640 -0.433110 2.322550 
					CHANNELS 3 Zrotation Yrotation Xrotation
					End Site
					{
						OFFSET 0.000000 0.000000 0.000000 
					}
				}
			}
		}
	}
	JOINT RightUpLeg
	{
		OFFSET -1.305520 -1.794630 0.839290 
		CHANNELS 3 Zrotation Yrotation Xrotation
		JOINT RightLeg
		{
			OFFSET -2.542530 -6.985550 0.000000 
			CHANNELS 3 Zrotation Yrotation Xrotation
			JOINT RightFoot
			{
				OFFSET -2.568260 -7.056230 0.000000 
				CHANNELS 3 Zrotation Yrotation Xrotation
				JOINT RightToeBase
				{
					OFFSET -0.164730 -0.452590 2.363150 
					CHANNELS 3 Zrotation Yrotation Xrotation
					End Site
					{
						OFFSET 0.000000 0.000000 0.000000 
					}
				}
			}
		}
	}
	JOINT Spine
	{
		OFFSET 0.028270 2.035590 -0.193380 
		CHANNELS 3 Zrotation Yrotation Xrotation
		JOINT Spine1
		{
			OFFSET 0.056720 2.048850 -0.042750 
			CHANNELS 3 Zrotation Yrotation Xrotation
			JOINT Neck1
			{
				OFFSET -0.054170 1.746240 0.172020 
				CHANNELS 3 Zrotation Yrotation Xrotation
				JOINT Head
				{
					OFFSET 0.104070 1.761360 -0.123970 
					CHANNELS 3 Zrotation Yrotation Xrotation
					End Site
					{
						OFFSET 0.000000 0.000000 0.000000 
					}
				}
			}
			JOINT LeftArm
			{
				OFFSET 3.362410 1.200890 -0.311210 
				CHANNELS 3 Zrotation Yrotation Xrotation
				JOINT LeftForeArm
				{
					OFFSET 4.983000 -0.000000 -0.000000 
					CHANNELS 3 Zrotation Yrotation Xrotation
					JOINT LeftHand
					{
						OFFSET 3.483560 -0.000000 -0.000000 
						CHANNELS 3 Zrotation Yrotation Xrotation
						JOINT LeftHandIndex1
						{
							OFFSET 0.715260 -0.000000 -0.000000 
							CHANNELS 3 Zrotation Yrotation Xrotation
							End Site
							{
								OFFSET 0.000000 0.000000 0.000000 
							}
						}
					}
				}
			}
			JOINT RightArm
			{
				OFFSET -3.136600 1.374050 -0.404650 
				CHANNELS 3 Zrotation Yrotation Xrotation
				JOINT RightForeArm
				{
					OFFSET -5.241900 -0.000000 -0.000000 
					CHANNELS 3 Zrotation Yrotation Xrotation
					JOINT RightHand
					{
						OFFSET -3.444170 -0.000000 -0.000000 
						CHANNELS 3 Zrotation Yrotation Xrotation
						JOINT RightHandIndex1
						{
							OFFSET -0.622530 -0.000000 -0.000000 
							CHANNELS 3 Zrotation Yrotation Xrotation
							End Site
							{
								OFFSET 0.000000 0.000000 0.000000 
							}
						}
					}
				}
			}
		}
	}
}
MOTION
Frames: 15
Frame Time: 0.041667
45.030661 17.025230 12.485906 -176.464803 26.376073 178.678508 -11.655731 9.723052 -21.420473 0.585613 8.994360 25.050148 -1.356282 10.108138 -2.053579 0.005100 -0.461300 -1.267500 9.527731 -20.287109 35.391828 0.475328 -2.334207 1.007247 1.377986 -22.112860 -25.279004 -0.191700 2.819800 -7.777500 1.910482 2.815945 -1.307636 -1.756512 0.945749 5.214737 0.687804 6.129483 7.870879 -2.819300 2.532800 12.833200 -3.560169 -43.281260 -3.536759 21.235278 -30.176156 -6.587310 -0.065685 0.853691 -5.702412 -7.125000 0.000000 0.000000 4.965354 61.225415 -6.500089 -23.135151 35.728607 -6.477102 0.465573 -1.643168 -1.535837 7.125000 0.000000 0.000000 
45.043863 16.975903 12.357676 -176.214978 26.131284 178.709948 -11.796573 9.211306 -21.890238 0.874448 9.600508 26.848513 -1.353637 10.109280 -2.322208 0.233900 -3.112600 -8.592400 9.265443 -20.524167 35.763974 0.494174 -2.503758 1.438265 1.434684 -22.148865 -24.475021 -0.296300 3.500200 -9.674700 1.806974 2.871351 -1.333823 -2.176975 0.999711 5.131710 0.604622 6.040093 7.536263 -2.937800 2.501600 12.596300 -3.188426 -43.246720 -3.750862 21.225059 -30.157083 -6.581999 -0.070662 0.859206 -5.623580 -7.125000 0.000000 0.000000 5.649962 61.294820 -6.326478 -23.133913 35.750820 -6.487625 0.464701 -1.639800 -1.096374 7.125000 0.000000 0.000000 
45.058702 16.935991 12.232618 -176.071405 26.002769 178.666310 -11.687224 7.967259 -21.860703 1.102126 10.143627 28.419023 -1.408371 10.452623 -3.902873 0.080700 -1.832500 -5.042900 9.199213 -20.271792 36.284160 0.501564 -2.596598 1.751496 1.376298 -21.905249 -24.691638 -0.165400 2.619900 -7.222200 1.718025 2.934150 -1.294159 -2.414274 1.053826 5.277959 0.638452 6.068814 7.232484 -2.906000 2.507200 12.421900 -2.854829 -43.308937 -4.392813 21.133115 -30.058284 -6.536950 -0.084322 0.863506 -5.452902 -7.125000 0.000000 0.000000 5.885428 61.346115 -6.286565 -23.309105 35.971519 -6.587773 0.461377 -1.640871 -1.260827 7.125000 0.000000 0.000000 
45.071699 16.908565 12.108584 -176.088030 25.946213 178.562484 -11.751105 7.031618 -21.838032 1.306899 10.607246 29.760575 -1.410523 10.557711 -5.171131 0.027000 -1.061400 -2.917700 8.809173 -20.080511 36.645747 0.509434 -2.776713 2.299830 1.373786 -21.785522 -24.316074 -0.114600 2.182800 -6.011000 1.682685 3.017790 -1.267728 -2.297921 1.082420 5.313875 0.607256 6.176801 7.084973 -2.890700 2.533500 12.376700 -3.014656 -43.326868 -4.834744 21.094918 -30.027321 -6.526380 -0.102431 0.867234 -5.397604 -7.125000 0.000000 0.000000 6.064673 61.453615 -6.073473 -23.504270 36.188297 -6.686839 0.456107 -1.641997 -1.609669 7.125000 0.000000 0.000000 
45.084491 16.895977 11.985266 -176.043406 25.825460 178.489616 -11.787860 6.206872 -21.698270 1.482826 10.977389 30.859593 -1.354505 10.355519 -6.319977 0.003900 -0.405400 -1.113800 8.367880 -20.101363 36.783919 0.518831 -3.055693 3.070681 1.446969 -21.856123 -23.152070 -0.174700 2.692300 -7.423200 1.644670 3.125932 -1.282810 -2.297769 1.127598 5.097659 0.106509 6.389232 6.626122 -3.174200 2.559300 12.088900 -3.311789 -43.350647 -4.868173 21.171892 -30.116859 -6.570385 -0.121358 0.864883 -5.750669 -7.125000 0.000000 0.000000 6.507887 61.584054 -6.022453 -23.442001 36.115548 -6.638387 0.472622 -1.625730 -0.976863 7.125000 0.000000 0.000000 
45.097795 16.894135 11.862051 -175.822857 25.657036 178.495037 -11.671742 5.569317 -21.439402 1.639440 11.261707 31.757185 -1.244708 9.870362 -7.485808 0.004100 0.413500 1.136300 8.306159 -20.027484 36.895729 0.524848 -3.331010 3.831012 1.519049 -21.977165 -22.038706 -0.217500 3.002200 -8.284800 1.592234 3.227887 -1.291326 -2.363209 1.179591 5.047113 0.381888 6.389560 6.596178 -2.932700 2.566900 12.098700 -3.518349 -43.494841 -4.940807 21.245565 -30.183311 -6.606212 -0.141543 0.866108 -6.477935 -7.125000 0.000000 0.000000 6.921424 61.452153 -5.452849 -23.587097 36.265260 -6.714433 0.469472 -1.629074 -1.763391 7.125000 0.000000 0.000000 
45.111304 16.902527 11.734946 -175.542809 25.546928 178.582560 -11.489160 5.320532 -21.154693 1.767570 11.446390 32.398602 -1.098133 9.160206 -8.382819 0.052600 1.480600 4.072300 8.462870 -19.776029 36.956838 0.518441 -3.562635 4.506063 1.424430 -21.594305 -22.480399 -0.035400 1.214800 -3.340000 1.551497 3.358263 -1.285960 -2.478553 1.254557 5.052720 0.354426 6.450119 6.474596 -2.965000 2.596000 12.036700 -3.725384 -43.734044 -5.071709 21.198236 -30.129186 -6.582886 -0.162940 0.871531 -7.008553 -7.125000 0.000000 0.000000 7.363521 61.295007 -4.930139 -23.749158 36.439513 -6.798566 0.477399 -1.633322 -2.129825 7.125000 0.000000 0.000000 
45.128394 16.920026 11.603134 -175.141766 25.551110 178.754139 -11.181897 5.441317 -20.771206 1.841186 11.484627 32.654064 -0.975172 8.520240 -8.902667 0.129900 2.322800 6.398500 8.786209 -19.499994 36.956934 0.519341 -3.773459 5.104119 1.541216 -22.003466 -21.449339 -0.030300 1.123900 -3.089900 1.505873 3.532715 -1.288208 -2.646873 1.357035 5.062280 -0.000553 6.366256 6.146968 -3.214000 2.519100 11.797000 -3.890313 -43.947668 -5.080506 21.174997 -30.097078 -6.563202 -0.170464 0.865586 -7.015944 -7.125000 0.000000 0.000000 7.947408 61.190543 -4.324022 -23.808638 36.516939 -6.832340 0.483211 -1.635259 -2.183911 7.125000 0.000000 0.000000 
45.149271 16.944792 11.470708 -174.654772 25.577972 178.961906 -10.764724 5.690073 -20.228294 1.858425 11.410106 32.579827 -0.852006 7.839460 -9.231496 0.230700 3.091200 8.532600 9.131547 -19.335500 36.858507 0.516241 -3.997575 5.719065 1.599400 -22.228015 -20.892256 -0.000700 -0.168700 0.463400 1.459036 3.718925 -1.310447 -2.823356 1.460363 5.005889 -0.013049 6.299760 5.994233 -3.258100 2.500700 11.631900 -4.128081 -44.023444 -4.715320 21.334798 -30.264884 -6.634434 -0.169762 0.848909 -7.187059 -7.125000 0.000000 0.000000 8.621611 61.098370 -3.628690 -23.781853 36.491042 -6.817324 0.489388 -1.634334 -2.099301 7.125000 0.000000 0.000000 
45.167794 16.975699 11.337259 -174.210235 25.576231 179.153231 -10.419656 5.978125 -19.639233 1.839543 11.288770 32.338045 -0.777804 7.414078 -9.382393 0.308600 3.571400 9.873800 9.205424 -19.431478 36.610766 0.510832 -4.307621 6.531528 1.698192 -22.604894 -19.778767 -0.036000 -1.224900 3.367900 1.420692 3.878871 -1.345819 -2.987550 1.544097 4.892362 -0.123641 6.399976 6.017010 -3.356800 2.549600 11.665000 -4.510378 -44.086578 -4.284816 21.503939 -30.437783 -6.712273 -0.163676 0.834755 -7.494997 -7.125000 0.000000 0.000000 9.115161 60.971539 -2.820240 -23.777596 36.474400 -6.807882 0.496502 -1.634311 -2.083758 7.125000 0.000000 0.000000 
45.183759 17.010698 11.201353 -173.937269 25.683598 179.255908 -10.407858 6.581806 -19.147298 1.826223 11.206646 32.167152 -0.829775 7.696092 -9.299801 0.093400 1.970600 5.424300 8.910097 -19.589016 36.347530 0.495774 -4.628643 7.387725 1.772009 -22.864407 -18.434134 -0.127000 -2.297300 6.328100 1.377823 4.005035 -1.368402 -3.022636 1.599990 4.843572 0.091505 6.507988 6.140402 -3.172500 2.612200 11.788900 -5.058638 -44.161065 -4.178161 21.545117 -30.473558 -6.730612 -0.145551 0.831442 -7.373169 -7.125000 0.000000 0.000000 9.336802 60.874810 -1.920266 -23.857963 36.542036 -6.838524 0.503184 -1.635755 -2.259485 7.125000 0.000000 0.000000 
45.201259 17.049689 11.067699 -173.801085 25.849863 179.270706 -10.314396 6.509775 -18.250661 1.750378 11.070978 31.786562 -0.670733 6.951709 -10.018269 0.328300 3.682500 10.185100 8.758108 -19.414452 36.264753 0.480579 -4.852054 8.036602 1.866987 -23.293277 -17.163954 -0.276100 -3.379900 9.338300 1.327546 4.132470 -1.379761 -3.053047 1.658666 4.774809 -0.143771 6.585929 6.070017 -3.292200 2.611700 11.786200 -5.496097 -44.176452 -4.069825 21.487138 -30.410161 -6.700958 -0.126498 0.833042 -7.135361 -7.125000 0.000000 0.000000 9.658180 60.876654 -1.099639 -23.904220 36.586983 -6.854738 0.507865 -1.637010 -2.285992 7.125000 0.000000 0.000000 
45.219066 17.091546 10.940697 -173.657264 25.973284 179.327259 -10.281925 6.537246 -17.512382 1.679326 10.948890 31.428315 -0.591759 6.623653 -10.472316 0.463700 4.367900 12.114200 8.930273 -19.022937 36.160634 0.465333 -5.041717 8.618406 1.984244 -23.905981 -16.200275 -0.454700 -4.325700 11.994800 1.266584 4.247441 -1.395758 -3.121999 1.713687 4.746765 -0.148568 6.723206 6.221984 -3.276200 2.673600 11.939900 -5.591662 -44.187276 -3.810548 21.385305 -30.289570 -6.641162 -0.110988 0.833356 -7.094496 -7.125000 0.000000 0.000000 9.942975 60.860058 -0.533874 -23.899660 36.565593 -6.839402 0.520684 -1.632567 -2.073968 7.125000 0.000000 0.000000 
45.235235 17.133300 10.818505 -173.604648 26.071553 179.355598 -10.376191 6.721523 -16.819716 1.596401 10.807717 31.000790 -0.547860 6.437370 -10.676684 0.467900 4.387300 12.169000 8.655864 -18.916529 35.836896 0.434236 -5.329247 9.441194 2.038344 -24.225125 -15.150331 -0.646100 -5.142000 14.314100 1.141086 4.414404 -1.420197 -3.306470 1.803036 4.751105 0.264356 6.432009 6.391588 -2.969700 2.566800 12.064500 -5.467303 -44.344015 -3.611598 21.361810 -30.230117 -6.614551 -0.083714 0.836661 -6.839824 -7.125000 0.000000 0.000000 10.201252 60.613579 -0.022076 -23.937132 36.580241 -6.848421 0.535759 -1.625734 -1.980000 7.125000 0.000000 0.000000 
45.250177 17.174952 10.697132 -173.887617 26.212519 179.287101 -10.836688 6.592401 -15.971822 1.433586 10.629665 30.337133 -0.533567 6.512276 -11.073409 0.471500 4.404000 12.216100 7.853331 -18.856295 35.448723 0.393139 -5.627044 10.318980 2.079699 -24.519233 -14.104576 -0.978700 -6.297500 17.650200 1.033167 4.562504 -1.442195 -3.297471 1.863287 4.652179 -0.020371 6.393908 6.254441 -3.177600 2.519400 12.006800 -5.524522 -44.335775 -3.448785 21.291599 -30.156422 -6.582890 -0.053143 0.845527 -6.312335 -7.125000 0.000000 0.000000 10.450235 60.571367 0.609204 -23.971450 36.606451 -6.857947 0.539473 -1.625940 -1.968620 7.125000 0.000000 0.000000 
